<?xml version="1.0" encoding="UTF-8" standalone="no"?>
<svg
   version="1.1"
   width="32"
   height="32"
   viewBox="0 0 100.00018 99.999815"
   id="svg1"
   sodipodi:docname="boomerang-status-symbolic.svg"
   inkscape:version="1.4.3 (0d15f75042, 2025-12-25)"
   xmlns:inkscape="http://www.inkscape.org/namespaces/inkscape"
   xmlns:sodipodi="http://sodipodi.sourceforge.net/DTD/sodipodi-0.dtd"
   xmlns="http://www.w3.org/2000/svg"
   xmlns:svg="http://www.w3.org/2000/svg">
  <defs
     id="defs1" />
  <sodipodi:namedview
     id="namedview1"
     pagecolor="#ffffff"
     bordercolor="#000000"
     borderopacity="0.25"
     inkscape:showpageshadow="2"
     inkscape:pageopacity="0.0"
     inkscape:pagecheckerboard="0"
     inkscape:deskcolor="#d1d1d1"
     inkscape:document-units="px"
     showgrid="true"
     inkscape:zoom="25.635786"
     inkscape:cx="12.638583"
     inkscape:cy="23.404783"
     inkscape:window-width="3072"
     inkscape:window-height="1659"
     inkscape:window-x="0"
     inkscape:window-y="0"
     inkscape:window-maximized="1"
     inkscape:current-layer="svg1">
    <inkscape:grid
       id="grid1"
       units="px"
       originx="0"
       originy="0"
       spacingx="6.2500113"
       spacingy="6.2499884"
       empcolor="#0099e5"
       empopacity="0.30196078"
       color="#0099e5"
       opacity="0.14901961"
       empspacing="5"
       enabled="true"
       visible="false" />
  </sodipodi:namedview>
  <path
     id="Selection"
     fill="none"
     stroke="#000000"
     stroke-width="0.0484589"
     d="m 11.321402,8.6049734 c 0,0 2.035271,0 2.035271,0 0,0 3.295208,0 3.295208,0 0,0 0.581506,0.039238 0.581506,0.039238 0,0 0.533045,0 0.533045,0 0,0 0.726886,0.05038 0.726886,0.05038 0,0 6.057359,0 6.057359,0 0,0 1.405305,0.096921 1.405305,0.096921 0,0 7.026541,0 7.026541,0 0,0 1.550687,0.096915 1.550687,0.096915 0,0 0.872254,0.048442 0.872254,0.048442 0,0 4.167469,0 4.167469,0 0,0 1.163011,0.094983 1.163011,0.094983 0,0 0.533051,0 0.533051,0 0,0 0.72688,0.05038 0.72688,0.05038 0,0 5.718149,0 5.718149,0 0,0 1.502226,0.096914 1.502226,0.096914 0,0 5.71815,0 5.71815,0 0,0 1.356845,0.096921 1.356845,0.096921 0,0 0.242295,0 0.242295,0 0,0 0.726886,0.048442 0.726886,0.048442 0,0 5.669691,0 5.669691,0 0,0 1.405306,0.096921 1.405306,0.096921 0,0 2.229106,0 2.229106,0 0,0 1.114556,0.096921 1.114556,0.096921 0,0 0.38767,0 0.38767,0 0.971119,0.1007898 1.951443,0.2713666 2.907532,0.4627796 3.635872,0.72737 7.158346,2.075496 9.982533,4.542047 1.248783,1.091298 2.169504,2.207792 3.099914,3.572394 0,0 0.55534,0.920715 0.55534,0.920715 1.77214,3.09071 2.381269,5.797141 3.153219,9.207187 0,0 2.180646,9.982533 2.180646,9.982533 0,0 1.453765,6.638864 1.453765,6.638864 0,0 1.211477,5.524315 1.211477,5.524315 0,0 1.639844,7.41421 1.639844,7.41421 0,0 1.509983,6.92962 1.509983,6.92962 0,0 2.043022,9.255646 2.043022,9.255646 0.368772,1.699452 0.850456,3.397936 0.989533,5.136638 0,0 0.04457,0.484591 0.04457,0.484591 0.0073,0.634809 -0.0018,1.263806 -0.11921,1.889896 -0.386217,2.061927 -1.617561,4.355485 -3.175998,5.758369 -0.467624,0.421107 -1.278829,0.965299 -1.841436,1.255571 -1.284642,0.662433 -3.252076,1.221649 -4.700514,1.224071 0,0 -1.356845,0 -1.356845,0 -0.617365,-0.0073 -1.866154,-0.232607 -2.471402,-0.401724 -1.193547,-0.334366 -2.128801,-0.71041 -3.101373,-1.510461 -2.185974,-1.79928 -2.94,-4.363242 -3.717762,-6.955791 0,0 -1.342313,-4.409759 -1.342313,-4.409759 0,0 -2.367699,-7.80188 -2.367699,-7.80188 0,0 -5.088184,-16.815231 -5.088184,-16.815231 -0.734153,-2.447659 -1.432446,-4.9021 -2.270785,-7.317291 -0.527232,-1.519671 -1.232791,-3.426044 -2.050294,-4.797428 -0.400756,-0.672128 -0.886309,-1.290462 -1.387376,-1.889412 -0.436131,-0.520934 -0.947371,-1.08887 -1.449891,-1.54293 -1.723197,-1.558437 -4.612321,-3.046124 -6.881161,-3.583051 -2.106996,-0.49816 -4.295883,-0.595559 -6.445036,-0.742393 0,0 -0.678419,-0.09062 -0.678419,-0.09062 0,0 -0.436131,0 -0.436131,0 0,0 -1.259931,-0.147313 -1.259931,-0.147313 0,0 -0.38767,0 -0.38767,0 0,0 -0.629965,-0.08868 -0.629965,-0.08868 0,0 -2.035278,-0.161851 -2.035278,-0.161851 0,0 -0.629965,-0.08045 -0.629965,-0.08045 0,0 -2.035271,-0.161851 -2.035271,-0.161851 0,0 -0.629966,-0.08044 -0.629966,-0.08044 0,0 -2.035271,-0.161851 -2.035271,-0.161851 0,0 -0.629965,-0.08044 -0.629965,-0.08044 0,0 -2.035277,-0.161851 -2.035277,-0.161851 0,0 -0.629966,-0.08045 -0.629966,-0.08045 0,0 -2.035271,-0.161851 -2.035271,-0.161851 0,0 -0.629966,-0.08044 -0.629966,-0.08044 0,0 -2.035271,-0.161857 -2.035271,-0.161857 0,0 -2.277566,-0.234054 -2.277566,-0.234054 0,0 -0.387676,0 -0.387676,0 0,0 -0.581506,-0.09498 -0.581506,-0.09498 0,0 -0.38767,0 -0.38767,0 0,0 -1.259931,-0.147318 -1.259931,-0.147318 0,0 -0.43613,0 -0.43613,0 0,0 -0.629965,-0.09691 -0.629965,-0.09691 0,0 -0.436131,0 -0.436131,0 0,0 -2.955992,-0.246661 -2.955992,-0.246661 0,0 -0.872261,-0.0882 -0.872261,-0.0882 0,0 -0.969175,-0.06105 -0.969175,-0.06105 0,0 -1.163011,-0.08868 -1.163011,-0.08868 0,0 -0.48459,-0.04408 -0.48459,-0.04408 0,0 -0.678426,-0.04457 -0.678426,-0.04457 0,0 -1.114556,-0.06494 -1.114556,-0.06494 0,0 -0.484585,-0.07462 -0.484585,-0.07462 0,0 -1.502226,-0.167186 -1.502226,-0.167186 0,0 -0.533051,-0.08092 -0.533051,-0.08092 C 11.113979,28.517164 8.9813027,28.388266 7.0570003,27.586755 5.3556101,26.877805 3.8495084,25.61593 2.9316999,24.007585 2.3288681,22.950693 2.0589547,21.761512 1.906792,20.567002 c -0.034878,-0.270888 -0.079954,-0.384279 -0.083351,-0.678425 0,0 -0.048442,-0.969176 -0.048442,-0.969176 -0.00121,-0.596044 -0.014533,-1.201298 0.062508,-1.792982 0.2214595,-1.70139 0.8901908,-3.299561 1.9446545,-4.652053 C 4.8909049,11.052584 6.3378829,10.043183 8.0261938,9.4238813 9.0918052,9.0333046 10.209753,8.8234776 11.321396,8.604925 Z"
     style="fill:#000000;fill-opacity:1" />
</svg>
